# xmcd
#
# Track frame offsets:
#	150
#	131574
#	159764
#	180296
#	207891
#	252123
#	281357
#
# Disc length: 4381 seconds
#
# Revision: 1
# Processed by: cddbd v1.5.2PL0 Copyright (c) Steve Scherf et al.
# Submitted via: audiograbber 1.83.01
#
DISCID=50111b07
DTITLE=Grateful Dead - 78-10-22 Winterland Arena, San Francisco CA
DYEAR=1900
DGENRE=
TTITLE0=Ollin Arrageed
TTITLE1=Deal
TTITLE2=Me and My Uncle
TTITLE3=Big River
TTITLE4=Friend Of The Devil
TTITLE5=Minglewood Blues
TTITLE6=Peggy-O
EXTD=
EXTT0=
EXTT1=
EXTT2=
EXTT3=
EXTT4=
EXTT5=
EXTT6=
PLAYORDER=
